<svg height="512pt" viewBox="0 -91 512 512" width="512pt" xmlns="http://www.w3.org/2000/svg"><path d="m496.988281 330h-481.976562c-7.261719 0-14.9882815-5.484375-15.0039065-15.648438l-.0078125-29.351562.0078125-29.351562c.015625-10.164063 7.7421875-15.648438 15.0039065-15.648438 4.027343 0 7.8125-1.578125 10.652343-4.441406 2.835938-2.863282 4.378907-6.660156 4.34375-10.6875-.070312-8.199219-6.800781-14.871094-14.996093-14.871094-7.261719 0-14.9882815-5.484375-15.0039065-15.648438l-.0078125-29.351562.0078125-29.351562c.015625-10.164063 7.7421875-15.648438 15.0039065-15.648438 8.195312 0 14.925781-6.671875 14.996093-14.867188.035157-4.03125-1.507812-7.828124-4.34375-10.691406-2.839843-2.863281-6.625-4.441406-10.652343-4.441406-7.261719 0-14.9882815-5.484375-15.0039065-15.648438l-.0078125-29.351562.0078125-29.351562c.015625-10.164063 7.7421875-15.648438 15.0039065-15.648438h481.976562c7.261719 0 14.988281 5.484375 15.003907 15.648438l.007812 29.351562-.007812 29.351562c-.015626 10.164063-7.742188 15.648438-15.003907 15.648438-4.027343 0-7.8125 1.578125-10.652343 4.441406-2.835938 2.863282-4.382813 6.660156-4.347657 10.691406.074219 8.195313 6.804688 14.867188 15 14.867188 7.261719 0 14.988281 5.484375 15.003907 15.648438l.007812 29.351562-.007812 29.351562c-.015626 10.164063-7.742188 15.648438-15.003907 15.648438-8.195312 0-14.925781 6.671875-15 14.867188-.035156 4.03125 1.511719 7.828124 4.347657 10.691406 2.839843 2.863281 6.625 4.441406 10.652343 4.441406 7.261719 0 14.988281 5.484375 15.003907 15.648438l.007812 29.351562-.007812 29.351562c-.015626 10.164063-7.742188 15.648438-15.003907 15.648438zm0 0" fill="#ff2828"/><path d="m496.988281 90c7.261719 0 14.988281-5.484375 15.003907-15.648438l.007812-29.351562-.007812-29.351562c-.015626-10.164063-7.742188-15.648438-15.003907-15.648438h-240.988281v330h240.988281c7.261719 0 14.988281-5.484375 15.003907-15.648438l.007812-29.351562-.007812-29.351562c-.015626-10.164063-7.742188-15.648438-15.003907-15.648438-4.027343 0-7.8125-1.578125-10.652343-4.441406-2.835938-2.863282-4.382813-6.660156-4.347657-10.691406.074219-8.195313 6.804688-14.867188 15-14.867188 7.261719 0 14.988281-5.484375 15.003907-15.648438l.007812-29.351562-.007812-29.351562c-.015626-10.164063-7.742188-15.648438-15.003907-15.648438-8.195312 0-14.925781-6.671875-15-14.867188-.035156-4.03125 1.511719-7.828124 4.347657-10.691406 2.839843-2.863281 6.625-4.441406 10.652343-4.441406zm0 0" fill="#e30000"/><g fill="#2d2d2d"><path d="m404 240c-8.285156 0-15-6.714844-15-15v-30c0-8.285156 6.714844-15 15-15s15 6.714844 15 15v30c0 8.285156-6.714844 15-15 15zm0 0"/><path d="m404 150c-8.285156 0-15-6.714844-15-15v-30c0-8.285156 6.714844-15 15-15s15 6.714844 15 15v30c0 8.285156-6.714844 15-15 15zm0 0"/><path d="m404 330c-8.285156 0-15-6.714844-15-15v-30c0-8.285156 6.714844-15 15-15s15 6.714844 15 15v30c0 8.285156-6.714844 15-15 15zm0 0"/><path d="m404 60c-8.285156 0-15-6.714844-15-15v-30c0-8.285156 6.714844-15 15-15s15 6.714844 15 15v30c0 8.285156-6.714844 15-15 15zm0 0"/></g><path d="m273.441406 253.054688c-2.390625 0-4.785156-.570313-6.980468-1.722657l-42.460938-22.324219-42.460938 22.324219c-5.058593 2.65625-11.179687 2.214844-15.796874-1.140625-4.621094-3.355468-6.933594-9.042968-5.96875-14.671875l8.109374-47.285156-34.355468-33.484375c-4.085938-3.984375-5.558594-9.945312-3.792969-15.375 1.761719-5.429688 6.457031-9.390625 12.105469-10.210938l47.476562-6.898437 21.230469-43.019531c2.527344-5.117188 7.742187-8.359375 13.449219-8.359375 5.710937 0 10.925781 3.242187 13.453125 8.359375l21.230469 43.019531 47.476562 6.898437c5.648438.820313 10.34375 4.78125 12.105469 10.210938 1.765625 5.429688.292969 11.390625-3.792969 15.375l-34.355469 33.484375 8.109375 47.285156c.964844 5.625-1.347656 11.316407-5.96875 14.671875-2.609375 1.898438-5.703125 2.863282-8.8125 2.863282zm0 0" fill="#ffba00"/><path d="m306.15625 129.164062-47.472656-6.894531-2.683594-5.4375v129l10.460938 5.5c2.195312 1.152344 4.59375 1.722657 6.980468 1.722657 3.109375 0 6.207032-.964844 8.816406-2.863282 4.621094-3.355468 6.933594-9.042968 5.96875-14.671875l-8.109374-47.285156 34.355468-33.484375c4.085938-3.984375 5.558594-9.945312 3.792969-15.375-1.761719-5.429688-6.457031-9.386719-12.109375-10.210938zm0 0" fill="#f0ad00"/></svg>